<?xml version="1.0" encoding="UTF-8" standalone="no"?>
<!DOCTYPE svg PUBLIC "-//W3C//DTD SVG 1.1//EN"
 "http://www.w3.org/Graphics/SVG/1.1/DTD/svg11.dtd">
<!-- Generated by graphviz version 14.1.5 (20260411.2331)
 -->
<!-- Title: test3_split Pages: 1 -->
<svg width="312pt" height="184pt"
 viewBox="0.00 0.00 312.00 184.00" xmlns="http://www.w3.org/2000/svg" xmlns:xlink="http://www.w3.org/1999/xlink">
<g id="graph0" class="graph" transform="scale(1 1) rotate(0) translate(4 179.88)">
<title>test3_split</title>
<polygon fill="white" stroke="none" points="-4,4 -4,-179.88 308.25,-179.88 308.25,4 -4,4"/>
<!-- dir -->
<g id="node1" class="node">
<title>dir</title>
<polygon fill="none" stroke="black" points="166,-126.88 0,-126.88 0,-55.88 166,-55.88 166,-126.88"/>
<text xml:space="preserve" text-anchor="middle" x="83" y="-109.58" font-family="Arial" font-size="14.00">Directory</text>
<text xml:space="preserve" text-anchor="middle" x="83" y="-93.83" font-family="Arial" font-size="14.00">(globalDepth=1)</text>
<text xml:space="preserve" text-anchor="middle" x="83" y="-78.08" font-family="Arial" font-size="14.00">[0] &#45;&gt; bucket692404036</text>
<text xml:space="preserve" text-anchor="middle" x="83" y="-62.33" font-family="Arial" font-size="14.00">[1] &#45;&gt; bucket1554874502</text>
</g>
<!-- bucket0 -->
<g id="node2" class="node">
<title>bucket0</title>
<polygon fill="none" stroke="black" points="304.25,-175.88 208.75,-175.88 208.75,-104.88 304.25,-104.88 304.25,-175.88"/>
<text xml:space="preserve" text-anchor="middle" x="256.5" y="-158.57" font-family="Arial" font-size="14.00">bucket0</text>
<text xml:space="preserve" text-anchor="middle" x="256.5" y="-142.82" font-family="Arial" font-size="14.00">localDepth=1</text>
<text xml:space="preserve" text-anchor="middle" x="256.5" y="-127.08" font-family="Arial" font-size="14.00">count=1/2</text>
<text xml:space="preserve" text-anchor="middle" x="256.5" y="-111.33" font-family="Arial" font-size="14.00">2 = dois</text>
</g>
<!-- dir&#45;&gt;bucket0 -->
<g id="edge1" class="edge">
<title>dir&#45;&gt;bucket0</title>
<path fill="none" stroke="black" d="M166.48,-114.94C176.96,-117.93 187.5,-120.95 197.48,-123.8"/>
<polygon fill="black" stroke="black" points="196.44,-127.14 207.02,-126.52 198.36,-120.41 196.44,-127.14"/>
<text xml:space="preserve" text-anchor="middle" x="187.38" y="-124.9" font-family="Times New Roman,serif" font-size="14.00">0</text>
</g>
<!-- bucket1 -->
<g id="node3" class="node">
<title>bucket1</title>
<polygon fill="none" stroke="black" points="304.25,-86.75 208.75,-86.75 208.75,0 304.25,0 304.25,-86.75"/>
<text xml:space="preserve" text-anchor="middle" x="256.5" y="-69.45" font-family="Arial" font-size="14.00">bucket1</text>
<text xml:space="preserve" text-anchor="middle" x="256.5" y="-53.7" font-family="Arial" font-size="14.00">localDepth=1</text>
<text xml:space="preserve" text-anchor="middle" x="256.5" y="-37.95" font-family="Arial" font-size="14.00">count=2/2</text>
<text xml:space="preserve" text-anchor="middle" x="256.5" y="-22.2" font-family="Arial" font-size="14.00">1 = um</text>
<text xml:space="preserve" text-anchor="middle" x="256.5" y="-6.45" font-family="Arial" font-size="14.00">3 = tres</text>
</g>
<!-- dir&#45;&gt;bucket1 -->
<g id="edge2" class="edge">
<title>dir&#45;&gt;bucket1</title>
<path fill="none" stroke="black" d="M166.48,-68.29C176.96,-65.36 187.5,-62.41 197.48,-59.61"/>
<polygon fill="black" stroke="black" points="198.33,-63.01 207.01,-56.95 196.44,-56.27 198.33,-63.01"/>
<text xml:space="preserve" text-anchor="middle" x="187.38" y="-66.28" font-family="Times New Roman,serif" font-size="14.00">1</text>
</g>
</g>
</svg>
