<?xml version="1.0" encoding="UTF-8" standalone="no"?>
<!DOCTYPE svg PUBLIC "-//W3C//DTD SVG 1.1//EN"
 "http://www.w3.org/Graphics/SVG/1.1/DTD/svg11.dtd">
<!-- Generated by graphviz version 14.1.5 (20260411.2331)
 -->
<!-- Title: test5_full_after_inserts Pages: 1 -->
<svg width="312pt" height="442pt"
 viewBox="0.00 0.00 312.00 442.00" xmlns="http://www.w3.org/2000/svg" xmlns:xlink="http://www.w3.org/1999/xlink">
<g id="graph0" class="graph" transform="scale(1 1) rotate(0) translate(4 437.62)">
<title>test5_full_after_inserts</title>
<polygon fill="white" stroke="none" points="-4,4 -4,-437.62 308.25,-437.62 308.25,4 -4,4"/>
<!-- dir -->
<g id="node1" class="node">
<title>dir</title>
<polygon fill="none" stroke="black" points="166,-255.62 0,-255.62 0,-153.12 166,-153.12 166,-255.62"/>
<text xml:space="preserve" text-anchor="middle" x="83" y="-238.32" font-family="Arial" font-size="14.00">Directory</text>
<text xml:space="preserve" text-anchor="middle" x="83" y="-222.57" font-family="Arial" font-size="14.00">(globalDepth=2)</text>
<text xml:space="preserve" text-anchor="middle" x="83" y="-206.82" font-family="Arial" font-size="14.00">[0] &#45;&gt; bucket1028214719</text>
<text xml:space="preserve" text-anchor="middle" x="83" y="-191.07" font-family="Arial" font-size="14.00">[1] &#45;&gt; bucket500977346</text>
<text xml:space="preserve" text-anchor="middle" x="83" y="-175.32" font-family="Arial" font-size="14.00">[2] &#45;&gt; bucket20132171</text>
<text xml:space="preserve" text-anchor="middle" x="83" y="-159.57" font-family="Arial" font-size="14.00">[3] &#45;&gt; bucket186370029</text>
</g>
<!-- bucket1 -->
<g id="node2" class="node">
<title>bucket1</title>
<polygon fill="none" stroke="black" points="304.25,-433.62 208.75,-433.62 208.75,-331.12 304.25,-331.12 304.25,-433.62"/>
<text xml:space="preserve" text-anchor="middle" x="256.5" y="-416.32" font-family="Arial" font-size="14.00">bucket1</text>
<text xml:space="preserve" text-anchor="middle" x="256.5" y="-400.57" font-family="Arial" font-size="14.00">localDepth=2</text>
<text xml:space="preserve" text-anchor="middle" x="256.5" y="-384.82" font-family="Arial" font-size="14.00">count=3/3</text>
<text xml:space="preserve" text-anchor="middle" x="256.5" y="-369.07" font-family="Arial" font-size="14.00">item4 = 40</text>
<text xml:space="preserve" text-anchor="middle" x="256.5" y="-353.32" font-family="Arial" font-size="14.00">item8 = 80</text>
<text xml:space="preserve" text-anchor="middle" x="256.5" y="-337.57" font-family="Arial" font-size="14.00">item0 = 0</text>
</g>
<!-- dir&#45;&gt;bucket1 -->
<g id="edge2" class="edge">
<title>dir&#45;&gt;bucket1</title>
<path fill="none" stroke="black" d="M133.6,-255.86C154.57,-277.62 179.07,-303.05 200.59,-325.38"/>
<polygon fill="black" stroke="black" points="197.85,-327.59 207.31,-332.36 202.9,-322.73 197.85,-327.59"/>
<text xml:space="preserve" text-anchor="middle" x="187.38" y="-317.75" font-family="Times New Roman,serif" font-size="14.00">1</text>
</g>
<!-- bucket2 -->
<g id="node3" class="node">
<title>bucket2</title>
<polygon fill="none" stroke="black" points="304.25,-312.62 208.75,-312.62 208.75,-210.12 304.25,-210.12 304.25,-312.62"/>
<text xml:space="preserve" text-anchor="middle" x="256.5" y="-295.32" font-family="Arial" font-size="14.00">bucket2</text>
<text xml:space="preserve" text-anchor="middle" x="256.5" y="-279.57" font-family="Arial" font-size="14.00">localDepth=2</text>
<text xml:space="preserve" text-anchor="middle" x="256.5" y="-263.82" font-family="Arial" font-size="14.00">count=3/3</text>
<text xml:space="preserve" text-anchor="middle" x="256.5" y="-248.07" font-family="Arial" font-size="14.00">item1 = 10</text>
<text xml:space="preserve" text-anchor="middle" x="256.5" y="-232.32" font-family="Arial" font-size="14.00">item5 = 50</text>
<text xml:space="preserve" text-anchor="middle" x="256.5" y="-216.57" font-family="Arial" font-size="14.00">item9 = 90</text>
</g>
<!-- dir&#45;&gt;bucket2 -->
<g id="edge3" class="edge">
<title>dir&#45;&gt;bucket2</title>
<path fill="none" stroke="black" d="M166.48,-231.79C177.07,-235.31 187.73,-238.85 197.8,-242.2"/>
<polygon fill="black" stroke="black" points="196.44,-245.43 207.03,-245.27 198.65,-238.79 196.44,-245.43"/>
<text xml:space="preserve" text-anchor="middle" x="187.38" y="-242.86" font-family="Times New Roman,serif" font-size="14.00">2</text>
</g>
<!-- bucket3 -->
<g id="node4" class="node">
<title>bucket3</title>
<polygon fill="none" stroke="black" points="304.25,-191.75 208.75,-191.75 208.75,-105 304.25,-105 304.25,-191.75"/>
<text xml:space="preserve" text-anchor="middle" x="256.5" y="-174.45" font-family="Arial" font-size="14.00">bucket3</text>
<text xml:space="preserve" text-anchor="middle" x="256.5" y="-158.7" font-family="Arial" font-size="14.00">localDepth=2</text>
<text xml:space="preserve" text-anchor="middle" x="256.5" y="-142.95" font-family="Arial" font-size="14.00">count=2/3</text>
<text xml:space="preserve" text-anchor="middle" x="256.5" y="-127.2" font-family="Arial" font-size="14.00">item2 = 20</text>
<text xml:space="preserve" text-anchor="middle" x="256.5" y="-111.45" font-family="Arial" font-size="14.00">item6 = 60</text>
</g>
<!-- dir&#45;&gt;bucket3 -->
<g id="edge4" class="edge">
<title>dir&#45;&gt;bucket3</title>
<path fill="none" stroke="black" d="M166.48,-177.44C177.07,-173.98 187.73,-170.51 197.8,-167.22"/>
<polygon fill="black" stroke="black" points="198.61,-170.63 207.03,-164.2 196.44,-163.98 198.61,-170.63"/>
<text xml:space="preserve" text-anchor="middle" x="187.38" y="-174.56" font-family="Times New Roman,serif" font-size="14.00">3</text>
</g>
<!-- bucket0 -->
<g id="node5" class="node">
<title>bucket0</title>
<polygon fill="none" stroke="black" points="304.25,-86.75 208.75,-86.75 208.75,0 304.25,0 304.25,-86.75"/>
<text xml:space="preserve" text-anchor="middle" x="256.5" y="-69.45" font-family="Arial" font-size="14.00">bucket0</text>
<text xml:space="preserve" text-anchor="middle" x="256.5" y="-53.7" font-family="Arial" font-size="14.00">localDepth=2</text>
<text xml:space="preserve" text-anchor="middle" x="256.5" y="-37.95" font-family="Arial" font-size="14.00">count=2/3</text>
<text xml:space="preserve" text-anchor="middle" x="256.5" y="-22.2" font-family="Arial" font-size="14.00">item7 = 70</text>
<text xml:space="preserve" text-anchor="middle" x="256.5" y="-6.45" font-family="Arial" font-size="14.00">item3 = 30</text>
</g>
<!-- dir&#45;&gt;bucket0 -->
<g id="edge1" class="edge">
<title>dir&#45;&gt;bucket0</title>
<path fill="none" stroke="black" d="M138.74,-152.99C158.46,-134.47 180.72,-113.57 200.48,-95.03"/>
<polygon fill="black" stroke="black" points="202.77,-97.67 207.67,-88.28 197.98,-92.57 202.77,-97.67"/>
<text xml:space="preserve" text-anchor="middle" x="187.38" y="-112.65" font-family="Times New Roman,serif" font-size="14.00">0</text>
</g>
</g>
</svg>
