<?xml version="1.0" encoding="UTF-8" standalone="no"?>
<!DOCTYPE svg PUBLIC "-//W3C//DTD SVG 1.1//EN"
 "http://www.w3.org/Graphics/SVG/1.1/DTD/svg11.dtd">
<!-- Generated by graphviz version 14.1.5 (20260411.2331)
 -->
<!-- Title: test1_basic Pages: 1 -->
<svg width="312pt" height="111pt"
 viewBox="0.00 0.00 312.00 111.00" xmlns="http://www.w3.org/2000/svg" xmlns:xlink="http://www.w3.org/1999/xlink">
<g id="graph0" class="graph" transform="scale(1 1) rotate(0) translate(4 106.5)">
<title>test1_basic</title>
<polygon fill="white" stroke="none" points="-4,4 -4,-106.5 308.25,-106.5 308.25,4 -4,4"/>
<!-- dir -->
<g id="node1" class="node">
<title>dir</title>
<polygon fill="none" stroke="black" points="166,-78.88 0,-78.88 0,-23.62 166,-23.62 166,-78.88"/>
<text xml:space="preserve" text-anchor="middle" x="83" y="-61.58" font-family="Arial" font-size="14.00">Directory</text>
<text xml:space="preserve" text-anchor="middle" x="83" y="-45.83" font-family="Arial" font-size="14.00">(globalDepth=0)</text>
<text xml:space="preserve" text-anchor="middle" x="83" y="-30.07" font-family="Arial" font-size="14.00">[0] &#45;&gt; bucket2001049719</text>
</g>
<!-- bucket0 -->
<g id="node2" class="node">
<title>bucket0</title>
<polygon fill="none" stroke="black" points="304.25,-102.5 208.75,-102.5 208.75,0 304.25,0 304.25,-102.5"/>
<text xml:space="preserve" text-anchor="middle" x="256.5" y="-85.2" font-family="Arial" font-size="14.00">bucket0</text>
<text xml:space="preserve" text-anchor="middle" x="256.5" y="-69.45" font-family="Arial" font-size="14.00">localDepth=0</text>
<text xml:space="preserve" text-anchor="middle" x="256.5" y="-53.7" font-family="Arial" font-size="14.00">count=3/3</text>
<text xml:space="preserve" text-anchor="middle" x="256.5" y="-37.95" font-family="Arial" font-size="14.00">chave1 = 10</text>
<text xml:space="preserve" text-anchor="middle" x="256.5" y="-22.2" font-family="Arial" font-size="14.00">chave3 = 30</text>
<text xml:space="preserve" text-anchor="middle" x="256.5" y="-6.45" font-family="Arial" font-size="14.00">chave2 = 20</text>
</g>
<!-- dir&#45;&gt;bucket0 -->
<g id="edge1" class="edge">
<title>dir&#45;&gt;bucket0</title>
<path fill="none" stroke="black" d="M166.48,-51.25C176.85,-51.25 187.27,-51.25 197.15,-51.25"/>
<polygon fill="black" stroke="black" points="196.96,-54.75 206.96,-51.25 196.96,-47.75 196.96,-54.75"/>
<text xml:space="preserve" text-anchor="middle" x="187.38" y="-54.45" font-family="Times New Roman,serif" font-size="14.00">0</text>
</g>
</g>
</svg>
