<?xml version="1.0" encoding="UTF-8" standalone="no"?>
<!DOCTYPE svg PUBLIC "-//W3C//DTD SVG 1.1//EN"
 "http://www.w3.org/Graphics/SVG/1.1/DTD/svg11.dtd">
<!-- Generated by graphviz version 14.1.5 (20260411.2331)
 -->
<!-- Title: test5_full_after_removes Pages: 1 -->
<svg width="312pt" height="289pt"
 viewBox="0.00 0.00 312.00 289.00" xmlns="http://www.w3.org/2000/svg" xmlns:xlink="http://www.w3.org/1999/xlink">
<g id="graph0" class="graph" transform="scale(1 1) rotate(0) translate(4 285)">
<title>test5_full_after_removes</title>
<polygon fill="white" stroke="none" points="-4,4 -4,-285 308.25,-285 308.25,4 -4,4"/>
<!-- dir -->
<g id="node1" class="node">
<title>dir</title>
<polygon fill="none" stroke="black" points="166,-227.62 0,-227.62 0,-125.12 166,-125.12 166,-227.62"/>
<text xml:space="preserve" text-anchor="middle" x="83" y="-210.32" font-family="Arial" font-size="14.00">Directory</text>
<text xml:space="preserve" text-anchor="middle" x="83" y="-194.57" font-family="Arial" font-size="14.00">(globalDepth=2)</text>
<text xml:space="preserve" text-anchor="middle" x="83" y="-178.82" font-family="Arial" font-size="14.00">[0] &#45;&gt; bucket1028214719</text>
<text xml:space="preserve" text-anchor="middle" x="83" y="-163.07" font-family="Arial" font-size="14.00">[1] &#45;&gt; bucket500977346</text>
<text xml:space="preserve" text-anchor="middle" x="83" y="-147.32" font-family="Arial" font-size="14.00">[2] &#45;&gt; bucket20132171</text>
<text xml:space="preserve" text-anchor="middle" x="83" y="-131.57" font-family="Arial" font-size="14.00">[3] &#45;&gt; bucket500977346</text>
</g>
<!-- bucket1 -->
<g id="node2" class="node">
<title>bucket1</title>
<polygon fill="none" stroke="black" points="304.25,-281 208.75,-281 208.75,-225.75 304.25,-225.75 304.25,-281"/>
<text xml:space="preserve" text-anchor="middle" x="256.5" y="-263.7" font-family="Arial" font-size="14.00">bucket1</text>
<text xml:space="preserve" text-anchor="middle" x="256.5" y="-247.95" font-family="Arial" font-size="14.00">localDepth=1</text>
<text xml:space="preserve" text-anchor="middle" x="256.5" y="-232.2" font-family="Arial" font-size="14.00">count=0/3</text>
</g>
<!-- dir&#45;&gt;bucket1 -->
<g id="edge2" class="edge">
<title>dir&#45;&gt;bucket1</title>
<path fill="none" stroke="black" d="M166.42,-217.42C172.35,-220.17 178.25,-222.84 184,-225.38 188.51,-227.36 193.22,-229.36 197.96,-231.32"/>
<polygon fill="black" stroke="black" points="196.37,-234.45 206.95,-234.98 199,-227.97 196.37,-234.45"/>
<text xml:space="preserve" text-anchor="middle" x="187.38" y="-231.05" font-family="Times New Roman,serif" font-size="14.00">1</text>
</g>
<!-- dir&#45;&gt;bucket1 -->
<g id="edge4" class="edge">
<title>dir&#45;&gt;bucket1</title>
<path fill="none" stroke="black" d="M166.47,-194.96C174.84,-197.85 183.07,-201.15 190.75,-204.88 195.58,-207.22 203.3,-212.49 211.75,-218.73"/>
<polygon fill="black" stroke="black" points="209.43,-221.36 219.52,-224.58 213.65,-215.77 209.43,-221.36"/>
<text xml:space="preserve" text-anchor="middle" x="187.38" y="-208.07" font-family="Times New Roman,serif" font-size="14.00">3</text>
</g>
<!-- bucket2 -->
<g id="node3" class="node">
<title>bucket2</title>
<polygon fill="none" stroke="black" points="304.25,-207.62 208.75,-207.62 208.75,-105.12 304.25,-105.12 304.25,-207.62"/>
<text xml:space="preserve" text-anchor="middle" x="256.5" y="-190.32" font-family="Arial" font-size="14.00">bucket2</text>
<text xml:space="preserve" text-anchor="middle" x="256.5" y="-174.57" font-family="Arial" font-size="14.00">localDepth=2</text>
<text xml:space="preserve" text-anchor="middle" x="256.5" y="-158.82" font-family="Arial" font-size="14.00">count=3/3</text>
<text xml:space="preserve" text-anchor="middle" x="256.5" y="-143.07" font-family="Arial" font-size="14.00">item1 = 10</text>
<text xml:space="preserve" text-anchor="middle" x="256.5" y="-127.33" font-family="Arial" font-size="14.00">item5 = 50</text>
<text xml:space="preserve" text-anchor="middle" x="256.5" y="-111.58" font-family="Arial" font-size="14.00">item9 = 90</text>
</g>
<!-- dir&#45;&gt;bucket2 -->
<g id="edge3" class="edge">
<title>dir&#45;&gt;bucket2</title>
<path fill="none" stroke="black" d="M166.48,-166.76C176.85,-165.55 187.27,-164.33 197.15,-163.18"/>
<polygon fill="black" stroke="black" points="197.44,-166.67 206.97,-162.03 196.63,-159.72 197.44,-166.67"/>
<text xml:space="preserve" text-anchor="middle" x="187.38" y="-167.78" font-family="Times New Roman,serif" font-size="14.00">2</text>
</g>
<!-- bucket0 -->
<g id="node4" class="node">
<title>bucket0</title>
<polygon fill="none" stroke="black" points="304.25,-86.75 208.75,-86.75 208.75,0 304.25,0 304.25,-86.75"/>
<text xml:space="preserve" text-anchor="middle" x="256.5" y="-69.45" font-family="Arial" font-size="14.00">bucket0</text>
<text xml:space="preserve" text-anchor="middle" x="256.5" y="-53.7" font-family="Arial" font-size="14.00">localDepth=2</text>
<text xml:space="preserve" text-anchor="middle" x="256.5" y="-37.95" font-family="Arial" font-size="14.00">count=2/3</text>
<text xml:space="preserve" text-anchor="middle" x="256.5" y="-22.2" font-family="Arial" font-size="14.00">item7 = 70</text>
<text xml:space="preserve" text-anchor="middle" x="256.5" y="-6.45" font-family="Arial" font-size="14.00">item3 = 30</text>
</g>
<!-- dir&#45;&gt;bucket0 -->
<g id="edge1" class="edge">
<title>dir&#45;&gt;bucket0</title>
<path fill="none" stroke="black" d="M150.31,-124.95C166.54,-112.37 183.75,-99.02 199.45,-86.84"/>
<polygon fill="black" stroke="black" points="201.54,-89.65 207.3,-80.75 197.25,-84.12 201.54,-89.65"/>
<text xml:space="preserve" text-anchor="middle" x="187.38" y="-101.16" font-family="Times New Roman,serif" font-size="14.00">0</text>
</g>
</g>
</svg>
