<?xml version="1.0" encoding="UTF-8" standalone="no"?>
<!DOCTYPE svg PUBLIC "-//W3C//DTD SVG 1.1//EN"
 "http://www.w3.org/Graphics/SVG/1.1/DTD/svg11.dtd">
<!-- Generated by graphviz version 14.1.5 (20260411.2331)
 -->
<!-- Title: test2_update Pages: 1 -->
<svg width="309pt" height="79pt"
 viewBox="0.00 0.00 309.00 79.00" xmlns="http://www.w3.org/2000/svg" xmlns:xlink="http://www.w3.org/1999/xlink">
<g id="graph0" class="graph" transform="scale(1 1) rotate(0) translate(4 75)">
<title>test2_update</title>
<polygon fill="white" stroke="none" points="-4,4 -4,-75 305.25,-75 305.25,4 -4,4"/>
<!-- dir -->
<g id="node1" class="node">
<title>dir</title>
<polygon fill="none" stroke="black" points="157.75,-63.12 0,-63.12 0,-7.88 157.75,-7.88 157.75,-63.12"/>
<text xml:space="preserve" text-anchor="middle" x="78.88" y="-45.83" font-family="Arial" font-size="14.00">Directory</text>
<text xml:space="preserve" text-anchor="middle" x="78.88" y="-30.07" font-family="Arial" font-size="14.00">(globalDepth=0)</text>
<text xml:space="preserve" text-anchor="middle" x="78.88" y="-14.32" font-family="Arial" font-size="14.00">[0] &#45;&gt; bucket312714112</text>
</g>
<!-- bucket0 -->
<g id="node2" class="node">
<title>bucket0</title>
<polygon fill="none" stroke="black" points="301.25,-71 200.5,-71 200.5,0 301.25,0 301.25,-71"/>
<text xml:space="preserve" text-anchor="middle" x="250.88" y="-53.7" font-family="Arial" font-size="14.00">bucket0</text>
<text xml:space="preserve" text-anchor="middle" x="250.88" y="-37.95" font-family="Arial" font-size="14.00">localDepth=0</text>
<text xml:space="preserve" text-anchor="middle" x="250.88" y="-22.2" font-family="Arial" font-size="14.00">count=1/2</text>
<text xml:space="preserve" text-anchor="middle" x="250.88" y="-6.45" font-family="Arial" font-size="14.00">nome = Maria</text>
</g>
<!-- dir&#45;&gt;bucket0 -->
<g id="edge1" class="edge">
<title>dir&#45;&gt;bucket0</title>
<path fill="none" stroke="black" d="M157.91,-35.5C168.2,-35.5 178.62,-35.5 188.58,-35.5"/>
<polygon fill="black" stroke="black" points="188.5,-39 198.5,-35.5 188.5,-32 188.5,-39"/>
<text xml:space="preserve" text-anchor="middle" x="179.12" y="-38.7" font-family="Times New Roman,serif" font-size="14.00">0</text>
</g>
</g>
</svg>
