<?xml version="1.0" encoding="UTF-8" standalone="no"?>
<!DOCTYPE svg PUBLIC "-//W3C//DTD SVG 1.1//EN"
 "http://www.w3.org/Graphics/SVG/1.1/DTD/svg11.dtd">
<!-- Generated by graphviz version 14.1.5 (20260411.2331)
 -->
<!-- Title: test4_remove_after Pages: 1 -->
<svg width="305pt" height="63pt"
 viewBox="0.00 0.00 305.00 63.00" xmlns="http://www.w3.org/2000/svg" xmlns:xlink="http://www.w3.org/1999/xlink">
<g id="graph0" class="graph" transform="scale(1 1) rotate(0) translate(4 59.25)">
<title>test4_remove_after</title>
<polygon fill="white" stroke="none" points="-4,4 -4,-59.25 300.75,-59.25 300.75,4 -4,4"/>
<!-- dir -->
<g id="node1" class="node">
<title>dir</title>
<polygon fill="none" stroke="black" points="158.5,-55.25 0,-55.25 0,0 158.5,0 158.5,-55.25"/>
<text xml:space="preserve" text-anchor="middle" x="79.25" y="-37.95" font-family="Arial" font-size="14.00">Directory</text>
<text xml:space="preserve" text-anchor="middle" x="79.25" y="-22.2" font-family="Arial" font-size="14.00">(globalDepth=0)</text>
<text xml:space="preserve" text-anchor="middle" x="79.25" y="-6.45" font-family="Arial" font-size="14.00">[0] &#45;&gt; bucket666641942</text>
</g>
<!-- bucket0 -->
<g id="node2" class="node">
<title>bucket0</title>
<polygon fill="none" stroke="black" points="296.75,-55.25 201.25,-55.25 201.25,0 296.75,0 296.75,-55.25"/>
<text xml:space="preserve" text-anchor="middle" x="249" y="-37.95" font-family="Arial" font-size="14.00">bucket0</text>
<text xml:space="preserve" text-anchor="middle" x="249" y="-22.2" font-family="Arial" font-size="14.00">localDepth=0</text>
<text xml:space="preserve" text-anchor="middle" x="249" y="-6.45" font-family="Arial" font-size="14.00">count=0/2</text>
</g>
<!-- dir&#45;&gt;bucket0 -->
<g id="edge1" class="edge">
<title>dir&#45;&gt;bucket0</title>
<path fill="none" stroke="black" d="M158.72,-27.62C169.14,-27.62 179.67,-27.62 189.67,-27.62"/>
<polygon fill="black" stroke="black" points="189.6,-31.13 199.6,-27.63 189.6,-24.13 189.6,-31.13"/>
<text xml:space="preserve" text-anchor="middle" x="179.88" y="-30.82" font-family="Times New Roman,serif" font-size="14.00">0</text>
</g>
</g>
</svg>
